<?xml version="1.0" standalone="no"?>
<!DOCTYPE svg PUBLIC "-//W3C//DTD SVG 20010904//EN"
 "http://www.w3.org/TR/2001/REC-SVG-20010904/DTD/svg10.dtd">
<svg version="1.0" xmlns="http://www.w3.org/2000/svg"
 width="700.000000pt" height="700.000000pt" viewBox="0 0 700.000000 700.000000"
 preserveAspectRatio="xMidYMid meet">
<metadata>
Created by potrace 1.14, written by Peter Selinger 2001-2017
</metadata>
<g transform="translate(0.000000,700.000000) scale(0.100000,-0.100000)"
fill="#000000" stroke="none">
<path d="M1250 6993 c-141 -15 -348 -77 -480 -143 -386 -196 -644 -533 -742
-971 l-23 -104 0 -2275 0 -2275 23 -104 c128 -569 527 -968 1095 -1093 l102
-23 2275 0 2275 0 100 22 c137 31 213 56 331 113 395 187 668 536 766 983 l23
102 0 2275 0 2275 -23 102 c-99 447 -371 796 -766 983 -118 56 -164 73 -306
108 l-105 27 -2255 1 c-1240 0 -2271 -1 -2290 -3z m2389 -1538 c405 -51 691
-172 897 -379 230 -231 338 -540 321 -920 -10 -208 -47 -353 -131 -512 -125
-235 -347 -429 -611 -535 -47 -19 -85 -37 -85 -40 0 -4 53 -73 118 -155 167
-211 652 -837 757 -977 l88 -118 -16 -53 c-66 -207 -338 -307 -547 -201 -89
45 -173 152 -610 783 l-424 612 -353 0 -353 0 0 -685 c0 -644 -1 -685 -18
-694 -40 -22 -183 -43 -293 -43 -188 -1 -281 37 -335 135 l-29 52 -3 1715 c-3
1898 -7 1763 61 1830 110 109 412 175 927 204 135 8 520 -4 639 -19z"/>
<path d="M2873 4905 c-62 -7 -130 -16 -152 -20 l-41 -7 0 -684 0 -684 378 0
c207 0 409 5 447 10 354 51 579 219 652 491 24 90 25 320 0 408 -69 254 -260
408 -587 477 -104 22 -544 28 -697 9z"/>
</g>
</svg>
