<svg xmlns="http://www.w3.org/2000/svg" version="1.1" xmlns:xlink="http://www.w3.org/1999/xlink" xmlns:svgjs="http://svgjs.com/svgjs" width="256" height="256"><svg xmlns="http://www.w3.org/2000/svg" width="256" height="256" viewBox="0 0 100 100"><rect width="100" height="100" rx="20" fill="#383838"></rect><path d="M38.39 57.65L38.39 77.36Q37.67 77.63 36.50 77.85Q35.33 78.08 33.89 78.08L33.89 78.08Q31.10 78.08 29.89 77.04Q28.67 76.01 28.67 73.58L28.67 73.58L28.67 27.14Q28.67 25.61 29.53 24.75Q30.38 23.90 31.91 23.45L31.91 23.45Q34.70 22.46 38.57 22.10Q42.44 21.74 46.31 21.74L46.31 21.74Q58.01 21.74 63.72 26.46Q69.44 31.19 69.44 39.74L69.44 39.74Q69.44 45.68 66.34 49.86Q63.23 54.05 57.47 56.12L57.47 56.12Q59.63 58.82 61.70 61.47Q63.77 64.13 65.61 66.51Q67.46 68.90 68.95 70.83Q70.43 72.77 71.33 74.03L71.33 74.03Q70.88 76.10 69.35 77.18Q67.82 78.26 66.02 78.26L66.02 78.26Q63.86 78.26 62.60 77.22Q61.34 76.19 60.08 74.39L60.08 74.39L48.47 57.65L38.39 57.65ZM38.30 49.91L47.03 49.91Q52.88 49.91 56.30 47.39Q59.72 44.87 59.72 39.74L59.72 39.74Q59.72 34.70 56.25 32.18Q52.79 29.66 46.04 29.66L46.04 29.66Q43.97 29.66 41.95 29.84Q39.92 30.02 38.30 30.29L38.30 30.29L38.30 49.91Z" fill="#ffffff"></path></svg><style>@media (prefers-color-scheme: light) { :root { filter: none; } }
@media (prefers-color-scheme: dark) { :root { filter: none; } }
</style></svg>