<svg id="Layer_1" data-name="Layer 1" xmlns="http://www.w3.org/2000/svg" viewBox="0 0 122.88 122.88"><title>round-line-left-arrow</title><path d="M61.43,0V0h0a61.39,61.39,0,0,1,61.41,61.43h0v0h0a61.38,61.38,0,0,1-61.4,61.38v0h0v0A61.35,61.35,0,0,1,0,61.45H0v0H0A61.34,61.34,0,0,1,61.43,0ZM31.9,61.44,62.41,89V71.38H83.68V51.5H62.41V33.92L31.9,61.44ZM61.44,13.16h0v0A48.36,48.36,0,0,0,13.14,61.41h0v0h0a48.35,48.35,0,0,0,48.27,48.29v0h0v0a48.27,48.27,0,0,0,48.29-48.27h0v0h0a48.3,48.3,0,0,0-48.3-48.27Z"/></svg>